<?xml version="1.0" encoding="utf-8"?>
<!-- Generator: Adobe Illustrator 15.1.0, SVG Export Plug-In . SVG Version: 6.00 Build 0)  -->
<!DOCTYPE svg PUBLIC "-//W3C//DTD SVG 1.1//EN" "http://www.w3.org/Graphics/SVG/1.1/DTD/svg11.dtd">
<svg version="1.1" id="Layer_1" xmlns="http://www.w3.org/2000/svg" xmlns:xlink="http://www.w3.org/1999/xlink" x="0px" y="0px"
	 width="91.393px" height="45.907px" viewBox="0 0 91.393 45.907" enable-background="new 0 0 91.393 45.907" xml:space="preserve">
<g>
	<path fill="#ED1C24" d="M45.111,45.907c-12.479,0-22.63-10.152-22.63-22.631c0-12.478,10.152-22.63,22.63-22.63
		c12.478,0,22.63,10.152,22.63,22.63C67.742,35.754,57.589,45.907,45.111,45.907z M45.111,3.646c-10.824,0-19.63,8.806-19.63,19.63
		c0,10.825,8.806,19.631,19.63,19.631c10.825,0,19.63-8.806,19.63-19.631C64.742,12.452,55.936,3.646,45.111,3.646z"/>
</g>
<g>
	<g>
		<path fill="#FF0000" d="M46.292,20.337c0.532,0,0.958-0.179,1.281-0.536c0.322-0.357,0.57-0.819,0.746-1.386
			c0.175-0.567,0.294-1.197,0.357-1.89s0.091-1.375,0.083-2.047c-0.007-0.672-0.023-1.292-0.052-1.858
			c-0.028-0.567-0.042-1.012-0.042-1.333c0-0.28,0.014-0.626,0.042-1.04c0.029-0.413,0.07-0.815,0.126-1.208
			c0.056-0.392,0.126-0.738,0.21-1.04c0.084-0.301,0.188-0.494,0.315-0.578c0.153-0.098,0.289-0.024,0.408,0.221
			s0.221,0.581,0.305,1.008c0.084,0.427,0.158,0.914,0.221,1.459c0.063,0.546,0.115,1.068,0.158,1.564
			c0.041,0.497,0.069,0.935,0.084,1.313c0.014,0.378,0.021,0.616,0.021,0.714c0,0.364-0.011,0.822-0.031,1.375
			s-0.077,1.137-0.168,1.753s-0.228,1.229-0.409,1.837c-0.183,0.609-0.432,1.159-0.746,1.648s-0.71,0.889-1.187,1.197
			s-1.05,0.462-1.722,0.462c-0.561,0-1.148-0.161-1.764-0.483c-0.616-0.322-1.232-0.738-1.848-1.249
			c-0.616-0.511-1.218-1.089-1.806-1.733c-0.588-0.644-1.134-1.288-1.638-1.932s-0.956-1.253-1.354-1.827
			c-0.399-0.574-0.718-1.057-0.956-1.449c-0.028,0.63-0.032,1.268-0.011,1.911c0.021,0.644,0.032,1.344,0.032,2.1
			c0,0.574-0.024,1.134-0.074,1.68c-0.049,0.546-0.165,1.071-0.346,1.575c-0.014,0.07-0.06,0.161-0.137,0.273
			c-0.077,0.112-0.171,0.224-0.283,0.336c-0.112,0.112-0.245,0.21-0.399,0.294c-0.154,0.084-0.315,0.126-0.483,0.126
			c-0.266,0-0.434-0.067-0.504-0.2c-0.07-0.133-0.105-0.291-0.105-0.473c0-0.28,0.021-0.63,0.063-1.05s0.095-0.861,0.158-1.323
			c0.063-0.462,0.133-0.924,0.21-1.386c0.077-0.462,0.147-0.889,0.21-1.281c0.063-0.392,0.112-0.724,0.147-0.998
			c0.035-0.273,0.052-0.451,0.052-0.535c0.084-0.532,0.14-0.977,0.168-1.333c0.028-0.357,0.045-0.654,0.053-0.893
			c0.007-0.238,0.014-0.434,0.021-0.588c0.007-0.154,0.032-0.294,0.074-0.42c-0.378-0.7-0.687-1.32-0.924-1.859
			c-0.238-0.539-0.357-1.103-0.357-1.69c0-0.308,0.035-0.528,0.105-0.662c0.07-0.133,0.147-0.199,0.231-0.199
			c0.07,0,0.147,0.049,0.231,0.147c0.084,0.098,0.161,0.213,0.231,0.347c0.07,0.133,0.129,0.266,0.179,0.399
			c0.049,0.133,0.087,0.228,0.115,0.283c0.224,0.616,0.539,1.352,0.945,2.205c0.406,0.854,0.878,1.743,1.417,2.667
			c0.539,0.924,1.134,1.837,1.785,2.741c0.651,0.903,1.336,1.715,2.058,2.436s1.463,1.302,2.226,1.743S45.535,20.337,46.292,20.337z
			"/>
	</g>
	<g>
		<path fill="#FF0000" d="M53.851,19.687c-0.519,0-0.931-0.133-1.239-0.399s-0.521-0.595-0.641-0.987
			c-0.119-0.392-0.154-0.819-0.105-1.281c0.05-0.462,0.169-0.885,0.357-1.271c0.189-0.385,0.438-0.704,0.746-0.956
			c0.308-0.252,0.672-0.364,1.092-0.336c0.49,0.028,0.889,0.175,1.197,0.441c0.308,0.266,0.531,0.595,0.672,0.987
			c0.14,0.392,0.199,0.809,0.178,1.25c-0.021,0.441-0.122,0.851-0.305,1.229c-0.182,0.378-0.438,0.693-0.766,0.945
			C54.708,19.561,54.313,19.687,53.851,19.687z M54.124,18.741c0.154,0.014,0.28-0.059,0.379-0.22
			c0.098-0.161,0.168-0.371,0.209-0.63c0.043-0.259,0.061-0.542,0.053-0.851c-0.007-0.308-0.041-0.595-0.104-0.861
			c-0.063-0.266-0.151-0.49-0.263-0.672c-0.112-0.182-0.245-0.273-0.398-0.273c-0.141,0-0.26,0.084-0.357,0.252
			s-0.172,0.378-0.221,0.63c-0.049,0.252-0.073,0.529-0.073,0.83c0,0.301,0.028,0.581,0.084,0.84
			c0.056,0.259,0.14,0.479,0.252,0.661C53.795,18.629,53.942,18.728,54.124,18.741z"/>
	</g>
	<g>
		<path fill="#FF0000" d="M56.854,13.344c0-0.098,0.004-0.192,0.011-0.283c0.007-0.091,0.011-0.171,0.011-0.242
			c0-0.336,0.09-0.57,0.272-0.704c0.182-0.133,0.378-0.192,0.588-0.178c0.21,0.014,0.396,0.091,0.557,0.231
			c0.161,0.14,0.221,0.322,0.179,0.546l-0.105,0.546h0.504c0.266,0,0.459,0.046,0.578,0.137c0.119,0.091,0.178,0.189,0.178,0.294
			s-0.063,0.2-0.188,0.284s-0.302,0.126-0.524,0.126h-0.631c-0.056,0.504-0.104,1.061-0.146,1.669s-0.07,1.183-0.084,1.722
			c-0.014,0.54-0.008,0.987,0.021,1.344c0.027,0.357,0.09,0.536,0.188,0.536c0.084,0,0.199-0.126,0.347-0.378
			c0.146-0.252,0.297-0.542,0.451-0.872s0.294-0.651,0.42-0.966s0.21-0.528,0.252-0.64c0.027-0.126,0.091-0.21,0.189-0.252
			c0.098-0.042,0.191-0.052,0.283-0.031c0.091,0.021,0.168,0.07,0.23,0.147c0.063,0.077,0.074,0.179,0.031,0.305
			c-0.084,0.28-0.195,0.644-0.336,1.092c-0.14,0.448-0.314,0.882-0.524,1.302c-0.21,0.42-0.462,0.784-0.756,1.092
			s-0.644,0.462-1.05,0.462c-0.267,0-0.483-0.105-0.651-0.315s-0.294-0.486-0.378-0.83c-0.084-0.343-0.137-0.738-0.158-1.187
			c-0.021-0.448-0.023-0.91-0.01-1.386s0.042-0.956,0.084-1.438s0.076-0.927,0.105-1.333h-0.504c-0.225,0-0.396-0.042-0.516-0.126
			c-0.118-0.084-0.182-0.175-0.188-0.273c-0.007-0.098,0.046-0.189,0.157-0.273c0.112-0.084,0.295-0.126,0.547-0.126H56.854z"/>
	</g>
</g>
<g>
	<g>
		<path fill="#FF0000" d="M37.407,29.75c0.224,0.014,0.452,0.129,0.683,0.346c0.231,0.217,0.347,0.424,0.347,0.62
			c0,0.21-0.154,0.343-0.462,0.399l-4.053,0.294c-0.014,0.182-0.024,0.448-0.031,0.798c-0.007,0.35-0.011,0.735-0.011,1.155
			s-0.003,0.847-0.01,1.281c-0.007,0.434-0.032,0.829-0.074,1.187c-0.042,0.357-0.102,0.651-0.178,0.882
			c-0.077,0.231-0.186,0.347-0.326,0.347c-0.224,0-0.417-0.067-0.578-0.2c-0.161-0.133-0.291-0.287-0.388-0.462
			c-0.098-0.175-0.172-0.354-0.221-0.536c-0.049-0.182-0.074-0.315-0.074-0.399c0-0.658,0.007-1.313,0.021-1.963
			c0.014-0.651,0.042-1.313,0.084-1.985l-1.365,0.147c-0.238,0.028-0.361-0.003-0.368-0.094c-0.007-0.091,0.07-0.2,0.231-0.326
			s0.378-0.252,0.651-0.378s0.57-0.21,0.892-0.252c0-0.882,0.011-1.781,0.032-2.698s0.123-1.838,0.305-2.762
			c-1.079,0.042-1.939,0.077-2.583,0.105c-0.645,0.028-1.155,0.049-1.533,0.063c-0.378,0.014-0.669,0.024-0.872,0.032
			c-0.203,0.007-0.402,0.01-0.599,0.01c-0.378,0-0.672-0.056-0.882-0.168c-0.21-0.112-0.315-0.245-0.315-0.399
			c0-0.224,0.112-0.389,0.336-0.494c0.224-0.105,0.497-0.175,0.819-0.21c0.322-0.035,0.665-0.052,1.029-0.052
			c0.364,0,0.686-0.014,0.966-0.042c0.994-0.098,1.988-0.217,2.982-0.357c0.994-0.14,1.992-0.269,2.993-0.388
			c1.001-0.119,2.005-0.207,3.014-0.263c1.008-0.056,2.016-0.056,3.024,0h0.021c0.168,0.028,0.36,0.07,0.578,0.126
			c0.217,0.056,0.423,0.137,0.619,0.242c0.196,0.105,0.364,0.231,0.504,0.378s0.21,0.318,0.21,0.515s-0.154,0.343-0.462,0.441
			c-0.308,0.098-0.826,0.171-1.554,0.22c-0.728,0.049-1.684,0.084-2.867,0.105s-2.643,0.06-4.378,0.116
			c0.042,0.308,0.084,0.665,0.126,1.071c0.042,0.406,0.077,0.83,0.105,1.271c0.028,0.441,0.049,0.889,0.063,1.344
			c0.014,0.455,0.028,0.886,0.042,1.292c0.574-0.112,1.155-0.213,1.743-0.305C36.231,29.711,36.819,29.694,37.407,29.75z"/>
	</g>
	<g>
		<path fill="#FF0000" d="M40.852,35.125c-0.518,0-0.931-0.133-1.239-0.399s-0.521-0.595-0.64-0.987
			c-0.119-0.392-0.154-0.819-0.105-1.281c0.049-0.462,0.168-0.885,0.357-1.271c0.189-0.385,0.437-0.704,0.745-0.956
			s0.672-0.364,1.092-0.336c0.49,0.028,0.889,0.175,1.197,0.441c0.308,0.266,0.532,0.595,0.672,0.987
			c0.14,0.392,0.199,0.809,0.178,1.25s-0.123,0.851-0.305,1.229c-0.182,0.378-0.438,0.693-0.766,0.945
			C41.709,35,41.313,35.125,40.852,35.125z M41.125,34.18c0.154,0.014,0.28-0.059,0.378-0.22c0.098-0.161,0.168-0.371,0.21-0.63
			c0.042-0.259,0.06-0.542,0.053-0.851c-0.007-0.308-0.042-0.595-0.105-0.861c-0.063-0.266-0.151-0.49-0.263-0.672
			c-0.112-0.182-0.245-0.273-0.399-0.273c-0.14,0-0.259,0.084-0.357,0.252c-0.098,0.168-0.172,0.378-0.221,0.63
			c-0.049,0.252-0.073,0.529-0.073,0.83c0,0.301,0.028,0.581,0.084,0.84c0.056,0.259,0.14,0.479,0.252,0.661
			C40.795,34.068,40.942,34.167,41.125,34.18z"/>
	</g>
	<g>
		<path fill="#FF0000" d="M43.686,30.778c0-0.238,0.087-0.417,0.263-0.536c0.175-0.119,0.367-0.189,0.577-0.21
			s0.399,0.007,0.567,0.084c0.168,0.077,0.245,0.193,0.231,0.347c-0.028,0.448-0.07,0.917-0.126,1.407
			c-0.056,0.49-0.112,0.945-0.168,1.365c-0.056,0.42-0.091,0.774-0.105,1.061c-0.014,0.287,0.021,0.445,0.105,0.473
			c0.07,0.028,0.147-0.024,0.231-0.158c0.084-0.133,0.168-0.312,0.252-0.536c0.084-0.224,0.171-0.476,0.262-0.756
			c0.091-0.28,0.179-0.56,0.263-0.84c0.084-0.28,0.161-0.546,0.231-0.798c0.07-0.252,0.133-0.455,0.189-0.609
			c0.014-0.21,0.108-0.339,0.284-0.388c0.175-0.049,0.36-0.045,0.556,0.01c0.196,0.056,0.368,0.14,0.515,0.252
			c0.147,0.112,0.213,0.231,0.2,0.357c-0.056,0.252-0.109,0.567-0.158,0.945c-0.049,0.378-0.081,0.742-0.094,1.092
			c-0.014,0.35-0.004,0.651,0.031,0.903c0.035,0.252,0.116,0.378,0.242,0.378c0.084,0,0.185-0.108,0.304-0.326
			c0.119-0.217,0.234-0.473,0.347-0.767c0.111-0.294,0.217-0.588,0.314-0.882s0.161-0.518,0.189-0.672
			c0.027-0.14,0.091-0.234,0.189-0.284c0.098-0.049,0.195-0.063,0.293-0.042c0.099,0.021,0.18,0.073,0.242,0.158
			c0.063,0.084,0.073,0.189,0.031,0.315c-0.027,0.112-0.088,0.322-0.178,0.63c-0.092,0.308-0.211,0.644-0.357,1.008
			c-0.146,0.364-0.322,0.714-0.525,1.05c-0.203,0.336-0.43,0.581-0.682,0.735c-0.154,0.098-0.326,0.14-0.515,0.126
			s-0.371-0.066-0.546-0.158c-0.175-0.091-0.329-0.224-0.462-0.399c-0.133-0.175-0.221-0.381-0.263-0.619
			c-0.042-0.21-0.063-0.448-0.063-0.714c-0.126,0.392-0.273,0.763-0.441,1.113s-0.364,0.637-0.588,0.861
			c-0.14,0.154-0.305,0.242-0.494,0.263s-0.371-0.011-0.546-0.095c-0.175-0.084-0.329-0.207-0.462-0.368
			c-0.133-0.161-0.221-0.346-0.263-0.556s-0.063-0.476-0.063-0.798c0-0.322,0.01-0.672,0.031-1.05s0.049-0.77,0.084-1.176
			C43.647,31.569,43.672,31.17,43.686,30.778z"/>
	</g>
	<g>
		<path fill="#FF0000" d="M49.272,30.967c0.042-0.28,0.16-0.49,0.357-0.63c0.195-0.14,0.395-0.217,0.598-0.231
			c0.203-0.014,0.382,0.028,0.536,0.126c0.153,0.098,0.217,0.252,0.188,0.462c-0.027,0.196-0.066,0.417-0.115,0.662
			c-0.049,0.245-0.094,0.49-0.137,0.735c-0.041,0.245-0.073,0.476-0.094,0.693c-0.021,0.217-0.025,0.396-0.011,0.536
			c0.112-0.378,0.241-0.717,0.388-1.019c0.147-0.301,0.298-0.556,0.452-0.767c0.112-0.14,0.266-0.248,0.462-0.325
			c0.195-0.077,0.385-0.112,0.566-0.105c0.183,0.007,0.33,0.06,0.441,0.157c0.112,0.098,0.133,0.238,0.063,0.42
			c-0.041,0.126-0.08,0.322-0.115,0.588s-0.053,0.535-0.053,0.809c0,0.273,0.015,0.511,0.043,0.714
			c0.027,0.203,0.076,0.304,0.146,0.304c0.084,0,0.196-0.077,0.336-0.231c0.141-0.154,0.28-0.339,0.42-0.556
			c0.141-0.217,0.27-0.448,0.389-0.693c0.119-0.245,0.207-0.458,0.263-0.64c0.028-0.126,0.087-0.21,0.179-0.252
			c0.091-0.042,0.178-0.056,0.262-0.042c0.084,0.014,0.154,0.06,0.211,0.137c0.055,0.077,0.069,0.179,0.041,0.305
			c-0.041,0.196-0.14,0.462-0.293,0.798c-0.154,0.336-0.336,0.665-0.547,0.987c-0.209,0.322-0.44,0.606-0.692,0.851
			c-0.252,0.245-0.497,0.368-0.735,0.368c-0.406,0-0.696-0.108-0.871-0.326c-0.176-0.217-0.291-0.462-0.347-0.735
			s-0.077-0.539-0.063-0.798c0.014-0.259,0.008-0.423-0.021-0.494c-0.07,0.028-0.144,0.126-0.221,0.294s-0.15,0.364-0.22,0.588
			c-0.07,0.224-0.134,0.459-0.189,0.704c-0.057,0.245-0.092,0.452-0.105,0.62c-0.027,0.182-0.123,0.318-0.283,0.409
			c-0.161,0.091-0.336,0.137-0.525,0.137c-0.188,0-0.36-0.049-0.514-0.147c-0.154-0.098-0.225-0.252-0.211-0.462
			c0.014-0.238,0.014-0.525,0-0.861c-0.014-0.336-0.027-0.689-0.041-1.061c-0.015-0.371-0.021-0.731-0.021-1.081
			S49.215,31.248,49.272,30.967z"/>
	</g>
	<g>
		<path fill="#FF0000" d="M57.965,26.621c0-0.336,0.092-0.57,0.273-0.704c0.182-0.133,0.379-0.192,0.588-0.179
			c0.211,0.014,0.396,0.091,0.557,0.231c0.161,0.14,0.221,0.322,0.179,0.546c-0.028,0.168-0.07,0.486-0.126,0.955
			c-0.057,0.469-0.115,1.012-0.179,1.627c-0.063,0.617-0.115,1.253-0.157,1.911c-0.042,0.658-0.063,1.267-0.063,1.827
			s0.023,1.019,0.072,1.375s0.145,0.536,0.284,0.536c0.126,0,0.255-0.119,0.389-0.357c0.133-0.238,0.263-0.515,0.389-0.83
			s0.234-0.623,0.325-0.924c0.091-0.301,0.15-0.521,0.179-0.661c0.042-0.14,0.108-0.234,0.199-0.284
			c0.091-0.049,0.182-0.063,0.273-0.042c0.091,0.021,0.168,0.073,0.23,0.158c0.063,0.084,0.08,0.196,0.053,0.336
			c-0.028,0.14-0.092,0.413-0.189,0.819c-0.098,0.406-0.245,0.823-0.44,1.25c-0.196,0.427-0.452,0.809-0.767,1.145
			c-0.315,0.336-0.69,0.504-1.124,0.504c-0.322,0-0.57-0.129-0.745-0.389c-0.175-0.259-0.312-0.598-0.409-1.018
			c-0.113,0.266-0.263,0.504-0.451,0.714c-0.189,0.21-0.424,0.364-0.704,0.462c-0.308,0.112-0.574,0.126-0.798,0.042
			c-0.406-0.098-0.729-0.318-0.967-0.662c-0.238-0.343-0.402-0.742-0.493-1.197s-0.101-0.927-0.031-1.417
			c0.07-0.49,0.214-0.931,0.431-1.323c0.217-0.392,0.508-0.696,0.871-0.914c0.364-0.217,0.805-0.283,1.323-0.199
			c0.28,0.042,0.524,0.189,0.735,0.441c0.055-0.798,0.119-1.54,0.188-2.226C57.93,27.489,57.965,26.971,57.965,26.621z
			 M57.483,31.808c-0.028-0.196-0.08-0.392-0.157-0.588c-0.077-0.196-0.192-0.308-0.347-0.336c-0.225-0.042-0.424,0.028-0.599,0.21
			c-0.175,0.182-0.318,0.417-0.431,0.704c-0.111,0.287-0.192,0.606-0.241,0.956c-0.05,0.35-0.063,0.683-0.042,0.998
			s0.08,0.581,0.179,0.798c0.098,0.217,0.237,0.34,0.42,0.368c0.182,0.028,0.353-0.056,0.515-0.252
			c0.16-0.196,0.301-0.448,0.42-0.756c0.119-0.308,0.206-0.651,0.262-1.029C57.518,32.5,57.525,32.144,57.483,31.808z"/>
	</g>
</g>
<g>
	<g>
		<path fill="#ED1C24" d="M22.994,27.882c-0.117,0-0.492,0.145-1.125,0.434c-0.672,0.305-1.152,0.457-1.441,0.457
			c-0.148,0-0.254-0.023-0.316-0.07c-0.094-0.07-0.293-0.441-0.598-1.113c-0.273-0.578-0.484-0.938-0.633-1.078
			c-0.195-0.188-0.527-0.281-0.996-0.281c-0.148,0-0.336,0.008-0.563,0.023c0.164,0.641,0.438,1.926,0.82,3.855
			c0.086,0.5,0.465,0.91,1.137,1.23c0.539,0.211,1.082,0.418,1.629,0.621c-0.453,0.516-0.992,1.125-1.617,1.828
			c-2.75-0.688-5.414-1.031-7.992-1.031c-0.383,0-0.676,0.008-0.879,0.023c1.164-2.125,1.746-3.957,1.746-5.496
			c-0.391,0-1.703,0.266-3.938,0.797c-2.258,0.539-3.824,0.961-4.699,1.266c-0.07,0.023-0.176,0.016-0.316-0.023
			c-0.32-0.094-0.867-0.418-1.641-0.973c-1-0.711-1.523-1.082-1.57-1.113c1.609-1.961,3.348-4.363,5.215-7.207
			c1.734-2.641,2.828-4.496,3.281-5.566c0.086-0.211,0.215-0.332,0.387-0.363c1.633-0.305,3.207-0.719,4.723-1.242
			c0.188-0.063,0.293-0.094,0.316-0.094c0.047,0,0.102,0.07,0.164,0.211c0.836,1.898,1.523,4.195,2.063,6.891
			c0.008,0.023,0.25,1.488,0.727,4.395c0.43-0.055,0.805-0.113,1.125-0.176c0.773-0.148,1.188-0.293,1.242-0.434
			c0.102-0.227,0.152-0.449,0.152-0.668c0-0.688-0.488-1.297-1.465-1.828c0.813-0.344,1.898-0.727,3.258-1.148
			c0.125,0,0.203,0.023,0.234,0.07c0.133,0.203,0.199,0.582,0.199,1.137c0,0.242-0.016,0.611-0.047,1.107s-0.047,0.83-0.047,1.002
			c0,0.477,0.195,1.289,0.586,2.438C22.475,26.823,22.768,27.53,22.994,27.882z M13.127,22.14c0-1.289-0.633-1.934-1.898-1.934
			c-1.313,0-2.633,0.543-3.961,1.629c-1.297,1.047-1.945,2.039-1.945,2.977c0,0.641,0.602,0.961,1.805,0.961
			c1.383,0,2.664-0.289,3.844-0.867C12.408,24.218,13.127,23.296,13.127,22.14z"/>
	</g>
</g>
<g>
	<g>
		<path fill="#ED1C24" d="M91.395,26.402c-0.117,0-0.492,0.145-1.125,0.434c-0.672,0.305-1.152,0.457-1.441,0.457
			c-0.148,0-0.254-0.023-0.316-0.07c-0.094-0.07-0.293-0.441-0.598-1.113c-0.273-0.578-0.484-0.938-0.633-1.078
			c-0.195-0.188-0.527-0.281-0.996-0.281c-0.148,0-0.336,0.008-0.563,0.023c0.164,0.641,0.438,1.926,0.82,3.855
			c0.086,0.5,0.465,0.91,1.137,1.23c0.539,0.211,1.082,0.418,1.629,0.621c-0.453,0.516-0.992,1.125-1.617,1.828
			c-2.75-0.688-5.414-1.031-7.992-1.031c-0.383,0-0.676,0.008-0.879,0.023c1.164-2.125,1.746-3.957,1.746-5.496
			c-0.391,0-1.703,0.266-3.938,0.797c-2.258,0.539-3.824,0.961-4.699,1.266c-0.07,0.023-0.176,0.016-0.316-0.023
			c-0.32-0.094-0.867-0.418-1.641-0.973c-1-0.711-1.523-1.082-1.57-1.113c1.609-1.961,3.348-4.363,5.215-7.207
			c1.734-2.641,2.828-4.496,3.281-5.566c0.086-0.211,0.215-0.332,0.387-0.363c1.633-0.305,3.207-0.719,4.723-1.242
			c0.188-0.063,0.293-0.094,0.316-0.094c0.047,0,0.102,0.07,0.164,0.211c0.836,1.898,1.523,4.195,2.063,6.891
			c0.008,0.023,0.25,1.488,0.727,4.395c0.43-0.055,0.805-0.113,1.125-0.176c0.773-0.148,1.188-0.293,1.242-0.434
			c0.102-0.227,0.152-0.449,0.152-0.668c0-0.688-0.488-1.297-1.465-1.828c0.813-0.344,1.898-0.727,3.258-1.148
			c0.125,0,0.203,0.023,0.234,0.07c0.133,0.203,0.199,0.582,0.199,1.137c0,0.242-0.016,0.611-0.047,1.107s-0.047,0.83-0.047,1.002
			c0,0.477,0.195,1.289,0.586,2.438C90.875,25.343,91.168,26.05,91.395,26.402z M81.528,20.66c0-1.289-0.633-1.934-1.898-1.934
			c-1.313,0-2.633,0.543-3.961,1.629c-1.297,1.047-1.945,2.039-1.945,2.977c0,0.641,0.602,0.961,1.805,0.961
			c1.383,0,2.664-0.289,3.844-0.867C80.809,22.738,81.528,21.816,81.528,20.66z"/>
	</g>
</g>
</svg>
