<?xml version="1.0" encoding="utf-8"?>
<!-- Generator: Adobe Illustrator 15.1.0, SVG Export Plug-In . SVG Version: 6.00 Build 0)  -->
<!DOCTYPE svg PUBLIC "-//W3C//DTD SVG 1.1//EN" "http://www.w3.org/Graphics/SVG/1.1/DTD/svg11.dtd">
<svg version="1.1" id="Layer_1" xmlns="http://www.w3.org/2000/svg" xmlns:xlink="http://www.w3.org/1999/xlink" x="0px" y="0px"
	 width="42.077px" height="15.634px" viewBox="0 0 42.077 15.634" enable-background="new 0 0 42.077 15.634" xml:space="preserve">
<g>
	<path fill="#FFFFFF" stroke="#FFFFFF" d="M12.48,10.27c0.479,0.252,1.247,0.503,2.027,0.503c0.839,0,1.283-0.348,1.283-0.875
		c0-0.503-0.384-0.792-1.355-1.127c-1.343-0.479-2.231-1.223-2.231-2.398c0-1.379,1.164-2.423,3.058-2.423
		c0.924,0,1.583,0.18,2.063,0.408L16.918,5.82c-0.312-0.156-0.899-0.384-1.679-0.384c-0.792,0-1.175,0.372-1.175,0.78
		c0,0.516,0.444,0.743,1.499,1.139c1.427,0.528,2.087,1.271,2.087,2.411c0,1.355-1.031,2.507-3.25,2.507
		c-0.923,0-1.835-0.252-2.291-0.504L12.48,10.27z"/>
	<path fill="#FFFFFF" stroke="#FFFFFF" d="M20.735,4.069v3.106h3.01V4.069h1.823v8.083h-1.823V8.77h-3.01v3.382h-1.823V4.069H20.735
		z"/>
	<path fill="#FFFFFF" stroke="#FFFFFF" d="M34.568,8.026c0,2.663-1.595,4.258-3.97,4.258c-2.387,0-3.802-1.811-3.802-4.125
		c0-2.423,1.559-4.234,3.934-4.234C33.213,3.925,34.568,5.784,34.568,8.026z M28.728,8.123c0,1.595,0.744,2.71,1.967,2.71
		c1.235,0,1.943-1.175,1.943-2.747c0-1.463-0.684-2.71-1.943-2.71C29.447,5.376,28.728,6.551,28.728,8.123z"/>
	<path fill="#FFFFFF" stroke="#FFFFFF" d="M35.772,4.177c0.563-0.096,1.354-0.168,2.47-0.168c1.128,0,1.932,0.216,2.471,0.647
		c0.528,0.408,0.864,1.08,0.864,1.871s-0.252,1.475-0.744,1.919c-0.623,0.576-1.547,0.852-2.626,0.852
		c-0.24,0-0.456-0.012-0.624-0.048v2.902h-1.811V4.177z M37.583,7.847c0.156,0.036,0.336,0.048,0.611,0.048
		c0.972,0,1.571-0.492,1.571-1.307c0-0.744-0.516-1.188-1.439-1.188c-0.359,0-0.611,0.024-0.743,0.06V7.847z"/>
</g>
<g>
	<path fill="#FFFFFF" d="M5.67,15.634C2.491,15.634,0,12.2,0,7.817S2.491,0,5.67,0c3.18,0,5.671,3.434,5.671,7.817
		S8.85,15.634,5.67,15.634z M5.67,2C3.681,2,2,4.664,2,7.817s1.681,5.817,3.67,5.817c1.99,0,3.671-2.664,3.671-5.817S7.66,2,5.67,2z
		"/>
</g>
<g>
	<g>
		<rect x="-1.093" y="7.326" transform="matrix(0.0169 0.9999 -0.9999 0.0169 13.1756 1.6806)" width="13.652" height="0.429"/>
		<polygon fill="#FFFFFF" points="5.143,14.876 4.895,0.226 6.324,0.205 6.571,14.855 		"/>
	</g>
</g>
<g>
	<rect x="1.312" y="7.826" fill="#FFFFFF" width="9" height="0.5"/>
</g>
<g>
	
		<rect x="0.07" y="7.766" transform="matrix(0.6843 0.7292 -0.7292 0.6843 7.6579 -1.6572)" fill="#FFFFFF" width="11.346" height="0.5"/>
</g>
<g>
	
		<rect x="5.501" y="2.144" transform="matrix(0.8145 0.5801 -0.5801 0.8145 5.6739 -1.8635)" fill="#FFFFFF" width="0.5" height="11.595"/>
</g>
<g>
	<rect x="9.312" y="0.823" fill="#FFFFFF" width="29" height="0.25"/>
</g>
<g>
	<rect x="10.312" y="1.823" fill="#FFFFFF" width="29" height="0.25"/>
</g>
<g>
	<rect x="11.312" y="2.823" fill="#FFFFFF" width="29" height="0.25"/>
</g>
<g>
	<rect x="9.312" y="14.823" fill="#FFFFFF" width="29" height="0.25"/>
</g>
<g>
	<rect x="10.312" y="13.823" fill="#FFFFFF" width="29" height="0.25"/>
</g>
<g>
	<rect x="11.312" y="12.823" fill="#FFFFFF" width="29" height="0.25"/>
</g>
</svg>
