<?xml version="1.0" encoding="utf-8"?>
<!-- Generator: Adobe Illustrator 15.1.0, SVG Export Plug-In . SVG Version: 6.00 Build 0)  -->
<!DOCTYPE svg PUBLIC "-//W3C//DTD SVG 1.1//EN" "http://www.w3.org/Graphics/SVG/1.1/DTD/svg11.dtd">
<svg version="1.1"
	 id="Layer_1" 
	 xmlnsRdf="http://www.w3.org/1999/02/22-rdf-syntax-ns#" 
	 xmlnsCc="http://web.resource.org/cc/" 
	 xmlnsDc="http://purl.org/dc/elements/1.1/" 
	 xmlnsSvg="http://www.w3.org/2000/svg" 
	 xmlnsInkscape="http://www.inkscape.org/namespaces/inkscape" 
	 xmlnsSodipodi="http://sodipodi.sourceforge.net/DTD/sodipodi-0.dtd" 
	 xmlnsNs1="http://sozi.baierouge.fr"
	 xmlns="http://www.w3.org/2000/svg" 
	 xmlnsXlink="http://www.w3.org/1999/xlink" 
	 x="0px" y="0px" width="300px" height="300px" 
	 viewBox="100.102 0.07 598.723 599.484" 
	 enableBackground="new 100.102 0.07 598.723 599.484"
	 xmlSpace="preserve">
<path fill="#ED171F" d="M698.824,299.859C698.824,134.73,564.328,0.07,399.469,0.07S100.102,134.73,100.102,299.859
	c0,164.953,134.496,299.695,299.367,299.695S698.824,464.813,698.824,299.859z"/>
<path fill="#FFFFFF" d="M225.059,149.578l375.469,262.828c19.406-34.847,29.362-73.322,29.362-112.472
	c0-127.324-103.105-230.426-230.426-230.426c-66.909,0-130.359,28.941-173.976,79.734l-0.434,0.34L225.059,149.578z"/>
<path fill="#FFFFFF" d="M198.483,187.219l375.469,262.828c-139.137,161.824-404.743,63.445-404.743-150.188
	c0-39.656,10.294-78.469,29.7-112.979l-0.424,0.34L198.483,187.219z"/>
<path d="M323.016,274.031l-18.225-12.234c-2.363,1.94-3.966,4.725-3.966,7.931c0,5.906,4.81,10.293,10.378,10.293
	c2.363,0,4.303-0.422,5.906-1.603l5.895-4.383L323.016,274.031z"/>
<polygon points="540.621,446.074 515.227,484.887 485.109,484.887 489.832,475.359 501.305,472.57 503.332,464.637 439.875,406.758 
	402.164,337.406 288.422,486.07 239.32,459.492 249.188,450.375 269.859,454.77 365.039,303.398 487.805,389.719 496.16,400.852 "/>
<path d="M365.801,247.875l-23.372-16.2l9.112-7.509l7.172-44.044c0.422-3.543,1.603-6.75,3.544-9.956
	c2.362-2.785,5.147-5.147,7.931-7.509c5.569-3.966,10.294-7.932,15.019-12.319c0.76-0.759,1.182-1.941,1.182-3.544v-0.759
	c-0.844-2.447-3.207-4.388-5.484-4.388h-0.76c-2.447,0-5.146-0.422-7.172-2.025c-6.328-6.666-8.69-15.862-6.328-24.975v-2.362
	c0-1.181,0-2.784-0.422-4.388c-1.94-7.847,0.422-16.622,6.75-21.769c8.354-5.906,19.322-7.172,28.435-3.206
	c7.594,2.025,13.5,8.353,15.104,16.284c0.422,2.784,0.759,5.569,0.759,8.353c0,3.544-0.337,7.087-1.181,10.294
	c-1.52,4.725-2.785,9.534-3.544,14.681c-0.422,0.422-0.422,1.181-0.422,2.362c0,3.207,0.844,6.75,2.024,10.294
	c1.182,2.784,3.544,5.147,6.75,6.328c5.569,2.784,11.054,5.569,16.622,7.931c3.544,1.603,6.75,3.628,9.534,5.991
	c2.363,1.94,4.388,4.725,5.906,7.509l25.397,45.984l6.328,59.147l-2.7,0.759l0.76,12.656v0.844c0,5.569-4.388,10.294-10.294,10.294
	c-5.147,0-9.534-3.544-10.294-8.691l-8.775-57.543l-18.225-26.916l1.604,47.587c-0.422,0.337-0.422,0.759-0.422,1.181
	c0,2.362,0.759,4.303,1.603,6.328c4.726,7.509,7.51,15.862,7.51,24.553c0,4.387-0.76,8.775-1.94,13.079l-66.994-46.744
	l-1.519-21.854l-7.931,13.5l-1.289,0.762L365.801,247.875z"/>
</svg>
